<svg width="105" height="32" viewBox="0 0 105 32" fill="none" xmlns="http://www.w3.org/2000/svg">
<path d="M0.503662 21.4201V19.4692L6.02447 18.4729V21.1711C6.05215 22.6378 6.42573 23.7447 7.14524 24.4919C7.89241 25.2114 8.87481 25.5711 10.0924 25.5711C11.2824 25.5711 12.2233 25.1837 12.9151 24.4088C13.6346 23.634 13.9944 22.5962 13.9944 21.2956V0.955777H19.7227V21.2956C19.7227 24.0076 18.8233 26.3045 17.0246 28.1862C15.2258 30.068 12.9289 31.0089 10.1339 31.0089C7.22826 31.0089 4.88987 30.1372 3.11878 28.3938C1.37537 26.6227 0.503662 24.2981 0.503662 21.4201Z" fill="black"/>
<path d="M21.039 24.8239C21.039 23.0805 21.6063 21.683 22.7409 20.6314C23.8755 19.5799 25.3422 18.9157 27.141 18.639L32.1637 17.8918C33.1876 17.7534 33.6995 17.2691 33.6995 16.4389C33.6995 15.6641 33.3951 15.0276 32.7863 14.5295C32.2052 14.0314 31.3612 13.7823 30.2542 13.7823C29.0919 13.7823 28.1649 14.1006 27.4731 14.737C26.8089 15.3735 26.4353 16.1622 26.3523 17.1031L21.4541 16.0654C21.6478 14.2943 22.5196 12.7307 24.0693 11.3747C25.619 10.0188 27.6668 9.34077 30.2127 9.34077C33.2568 9.34077 35.4983 10.0741 36.9373 11.5408C38.3763 12.9798 39.0958 14.8339 39.0958 17.1031V27.1485C39.0958 28.3661 39.1788 29.4454 39.3449 30.3863H34.2807C34.1423 29.7774 34.0731 28.9611 34.0731 27.9372C32.7725 29.9573 30.7662 30.9674 28.0542 30.9674C25.951 30.9674 24.2491 30.3586 22.9485 29.141C21.6755 27.9233 21.039 26.4843 21.039 24.8239ZM29.2165 26.8579C30.5171 26.8579 31.5825 26.4982 32.4127 25.7787C33.2706 25.0315 33.6995 23.8139 33.6995 22.1258V21.2126L29.0919 21.9183C27.4039 22.1673 26.5598 23.0252 26.5598 24.4919C26.5598 25.156 26.7951 25.7233 27.2655 26.1938C27.736 26.6365 28.3863 26.8579 29.2165 26.8579Z" fill="black"/>
<path d="M60.727 0.33313V26.6919C60.727 28.0479 60.7823 29.2793 60.893 30.3863H55.6213C55.4829 29.6944 55.4137 28.9057 55.4137 28.0202C54.9433 28.8781 54.1961 29.5699 53.1722 30.0957C52.176 30.6215 51.0137 30.8844 49.6854 30.8844C46.7797 30.8844 44.3859 29.8743 42.5042 27.8542C40.6501 25.8063 39.723 23.2327 39.723 20.1333C39.723 17.1169 40.6362 14.5848 42.4627 12.537C44.3168 10.4892 46.669 9.4653 49.5193 9.4653C52.4527 9.4653 54.376 10.3093 55.2892 11.9974V0.33313H60.727ZM45.2853 20.1333C45.2853 21.9321 45.7558 23.3573 46.6967 24.4088C47.6376 25.4328 48.8552 25.9447 50.3495 25.9447C51.8162 25.9447 53.02 25.4189 53.9609 24.3673C54.9018 23.3157 55.3722 21.8906 55.3722 20.0918C55.3722 18.3207 54.9018 16.9371 53.9609 15.9408C53.02 14.9169 51.8162 14.405 50.3495 14.405C48.8828 14.405 47.6652 14.9169 46.6967 15.9408C45.7558 16.9647 45.2853 18.3622 45.2853 20.1333Z" fill="black"/>
<path d="M68.8746 24.4504C69.8985 25.4743 71.13 25.9862 72.569 25.9862C74.008 25.9862 75.2256 25.4743 76.2218 24.4504C77.2457 23.4264 77.7577 22.0013 77.7577 20.1748C77.7577 18.3484 77.2457 16.9232 76.2218 15.8993C75.2256 14.8754 74.008 14.3635 72.569 14.3635C71.13 14.3635 69.8985 14.8754 68.8746 15.8993C67.8784 16.9232 67.3802 18.3484 67.3802 20.1748C67.3802 22.0013 67.8784 23.4264 68.8746 24.4504ZM64.8896 12.4125C66.9375 10.3647 69.4972 9.34077 72.569 9.34077C75.6407 9.34077 78.1866 10.3647 80.2068 12.4125C82.2546 14.4603 83.2785 17.0478 83.2785 20.1748C83.2785 23.3019 82.2546 25.8894 80.2068 27.9372C78.1866 29.985 75.6407 31.0089 72.569 31.0089C69.4972 31.0089 66.9375 29.985 64.8896 27.9372C62.8695 25.8894 61.8594 23.3019 61.8594 20.1748C61.8594 17.0478 62.8695 14.4603 64.8896 12.4125Z" fill="black"/>
<path d="M89.7949 24.4504C90.8188 25.4743 92.0503 25.9862 93.4893 25.9862C94.9283 25.9862 96.1459 25.4743 97.1421 24.4504C98.1661 23.4264 98.678 22.0013 98.678 20.1748C98.678 18.3484 98.1661 16.9232 97.1421 15.8993C96.1459 14.8754 94.9283 14.3635 93.4893 14.3635C92.0503 14.3635 90.8188 14.8754 89.7949 15.8993C88.7987 16.9232 88.3006 18.3484 88.3006 20.1748C88.3006 22.0013 88.7987 23.4264 89.7949 24.4504ZM85.81 12.4125C87.8578 10.3647 90.4175 9.34077 93.4893 9.34077C96.561 9.34077 99.1069 10.3647 101.127 12.4125C103.175 14.4603 104.199 17.0478 104.199 20.1748C104.199 23.3019 103.175 25.8894 101.127 27.9372C99.1069 29.985 96.561 31.0089 93.4893 31.0089C90.4175 31.0089 87.8578 29.985 85.81 27.9372C83.7898 25.8894 82.7797 23.3019 82.7797 20.1748C82.7797 17.0478 83.7898 14.4603 85.81 12.4125Z" fill="black"/>
</svg>
